<?xml version="1.0" encoding="UTF-8" standalone="no"?>
<!-- Generator: Adobe Illustrator 12.0.1, SVG Export Plug-In . SVG Version: 6.00 Build 51448)  -->
<svg
   xmlns:dc="http://purl.org/dc/elements/1.1/"
   xmlns:cc="http://creativecommons.org/ns#"
   xmlns:rdf="http://www.w3.org/1999/02/22-rdf-syntax-ns#"
   xmlns:svg="http://www.w3.org/2000/svg"
   xmlns="http://www.w3.org/2000/svg"
   xmlns:sodipodi="http://sodipodi.sourceforge.net/DTD/sodipodi-0.dtd"
   xmlns:inkscape="http://www.inkscape.org/namespaces/inkscape"
   version="1.1"
   id="Layer_1"
   width="456.546"
   height="141.253"
   viewBox="0 0 456.546 141.253"
   style="overflow:visible;enable-background:new 0 0 456.546 141.253;"
   xml:space="preserve"
   sodipodi:version="0.32"
   inkscape:version="0.46"
   sodipodi:docname="all-trans-Retinol2.svg"
   inkscape:output_extension="org.inkscape.output.svg.inkscape"><metadata
   id="metadata116"><rdf:RDF><cc:Work
       rdf:about=""><dc:format>image/svg+xml</dc:format><dc:type
         rdf:resource="http://purl.org/dc/dcmitype/StillImage" /></cc:Work></rdf:RDF></metadata><defs
   id="defs114"><inkscape:perspective
   sodipodi:type="inkscape:persp3d"
   inkscape:vp_x="0 : 70.626503 : 1"
   inkscape:vp_y="0 : 1000 : 0"
   inkscape:vp_z="456.54599 : 70.626503 : 1"
   inkscape:persp3d-origin="228.27299 : 47.084335 : 1"
   id="perspective118" />
	
	

	

	
	

	

	
	

	
	

	

	
	

	

	

	

	
</defs><sodipodi:namedview
   inkscape:window-height="675"
   inkscape:window-width="661"
   inkscape:pageshadow="2"
   inkscape:pageopacity="0.0"
   guidetolerance="10.0"
   gridtolerance="10.0"
   objecttolerance="10.0"
   borderopacity="1.0"
   bordercolor="#666666"
   pagecolor="#ffffff"
   id="base"
   showgrid="false"
   inkscape:zoom="1.1915558"
   inkscape:cx="228.27299"
   inkscape:cy="70.626503"
   inkscape:window-x="154"
   inkscape:window-y="154"
   inkscape:current-layer="Layer_1" />
<path
   id="path5"
   d="M 86.5881,19.4505 L 88.75505,19.9958 C 88.30285,21.7723 87.4887,23.127 86.3145,24.05895 C 85.13935,24.9909 83.702,25.4583 82.00435,25.4583 C 80.24685,25.4583 78.81805,25.10015 77.717,24.3829 C 76.61595,23.6666 75.77805,22.6273 75.2033,21.2688 C 74.62855,19.90935 74.34165,18.4492 74.34165,16.89025 C 74.34165,15.18975 74.6656,13.7049 75.31445,12.43855 C 75.9633,11.1722 76.88575,10.2089 78.0837,9.55245 C 79.2807,8.896 80.5974,8.56635 82.0357,8.56635 C 83.66685,8.56635 85.0377,8.98245 86.1492,9.81465 C 87.26165,10.6478 88.0359,11.81725 88.4729,13.3268 L 86.3506,13.82745 C 85.9725,12.63995 85.42435,11.77545 84.70615,11.23395 C 83.987,10.69245 83.0826,10.4217 81.9939,10.4217 C 80.7418,10.4217 79.6949,10.7219 78.8532,11.32325 C 78.01245,11.9246 77.42155,12.73115 77.0805,13.7448 C 76.73945,14.75845 76.5694,15.8025 76.5694,16.87885 C 76.5694,18.2668 76.7708,19.47805 77.17455,20.51355 C 77.5783,21.54905 78.2053,22.32235 79.05745,22.8344 C 79.9096,23.34645 80.8311,23.60295 81.82385,23.60295 C 83.0313,23.60295 84.05255,23.2543 84.8895,22.55605 C 85.72645,21.8578 86.2917,20.82325 86.5881,19.4505 z"
   style="fill:#231f20" /><path
   id="path7"
   d="M 91.5053,25.17615 L 91.5053,8.8485 L 93.67225,8.8485 L 93.67225,15.55835 L 102.1187,15.55835 L 102.1187,8.8485 L 104.28565,8.8485 L 104.28565,25.1771 L 102.1187,25.1771 L 102.1187,17.48685 L 93.67225,17.48685 L 93.67225,25.17615 L 91.5053,25.17615 z"
   style="fill:#231f20" />
<path
   id="path11"
   d="M 105.8028,26.21545 L 107.3019,26.0074 C 107.47575,26.8586 107.7693,27.4723 108.1835,27.8485 C 108.59865,28.22375 109.1069,28.41185 109.71015,28.41185 C 110.4255,28.41185 111.02685,28.16675 111.5142,27.67845 C 112.00155,27.18825 112.24475,26.58215 112.24475,25.85825 C 112.24475,25.16855 112.01865,24.60045 111.56455,24.15205 C 111.1114,23.70365 110.5357,23.4804 109.8365,23.4804 C 109.55055,23.4804 109.19525,23.53645 108.7706,23.6476 L 108.93875,22.32615 C 109.03945,22.33755 109.1202,22.34325 109.18195,22.34325 C 109.82225,22.34325 110.3989,22.177 110.9119,21.84355 C 111.4249,21.5101 111.6814,20.99615 111.6814,20.3017 C 111.6814,19.75165 111.49425,19.29565 111.11995,18.9356 C 110.74565,18.5746 110.26305,18.3941 109.6712,18.3941 C 109.08505,18.3941 108.5958,18.5784 108.20535,18.947 C 107.8149,19.3156 107.56315,19.8685 107.452,20.6057 L 105.9529,20.33875 C 106.13625,19.32985 106.5552,18.548 107.2069,17.99415 C 107.8586,17.43935 108.6699,17.16195 109.63985,17.16195 C 110.30865,17.16195 110.9252,17.30445 111.4876,17.59135 C 112.05,17.8773 112.48035,18.26775 112.7796,18.76175 C 113.07695,19.2567 113.22705,19.7811 113.22705,20.33685 C 113.22705,20.86505 113.0855,21.34575 112.80145,21.77895 C 112.5174,22.21215 112.0975,22.55605 111.5408,22.81255 C 112.2647,22.97975 112.8271,23.3265 113.23085,23.85185 C 113.63365,24.3791 113.836,25.0365 113.836,25.8269 C 113.836,26.8966 113.44555,27.80195 112.66465,28.54485 C 111.88375,29.28775 110.8967,29.66015 109.7035,29.66015 C 108.62715,29.66015 107.7332,29.34 107.0226,28.7016 C 106.30915,28.06035 105.9035,27.2329 105.8028,26.21545 z"
   style="fill:#231f20" />
<path
   id="path15"
   d="M 133.0431,127.513 L 135.21005,128.0583 C 134.75785,129.8348 133.9437,131.1895 132.7695,132.12145 C 131.59435,133.0534 130.157,133.5208 128.45935,133.5208 C 126.70185,133.5208 125.27305,133.16265 124.172,132.4454 C 123.07095,131.7291 122.23305,130.6898 121.6583,129.3313 C 121.08355,127.97185 120.79665,126.5117 120.79665,124.95275 C 120.79665,123.25225 121.1206,121.7674 121.76945,120.50105 C 122.4183,119.2347 123.34075,118.2714 124.5387,117.61495 C 125.7357,116.9585 127.0524,116.62885 128.4907,116.62885 C 130.12185,116.62885 131.4927,117.04495 132.6042,117.87715 C 133.71665,118.7103 134.4909,119.87975 134.9279,121.3893 L 132.8056,121.88995 C 132.4275,120.70245 131.87935,119.83795 131.16115,119.29645 C 130.442,118.75495 129.5376,118.4842 128.4489,118.4842 C 127.1968,118.4842 126.1499,118.7844 125.3082,119.38575 C 124.46745,119.9871 123.87655,120.79365 123.5355,121.8073 C 123.19445,122.82095 123.0244,123.865 123.0244,124.94135 C 123.0244,126.3293 123.2258,127.54055 123.62955,128.57605 C 124.0333,129.61155 124.6603,130.38485 125.51245,130.8969 C 126.3646,131.40895 127.2861,131.66545 128.27885,131.66545 C 129.4863,131.66545 130.50755,131.3168 131.3445,130.61855 C 132.18145,129.9203 132.7467,128.88575 133.0431,127.513 z"
   style="fill:#231f20" /><path
   id="path17"
   d="M 137.9603,133.23865 L 137.9603,116.91005 L 140.12725,116.91005 L 140.12725,123.6199 L 148.5737,123.6199 L 148.5737,116.91005 L 150.74065,116.91005 L 150.74065,133.23865 L 148.5737,133.23865 L 148.5737,125.54935 L 140.12725,125.54935 L 140.12725,133.23865 L 137.9603,133.23865 z"
   style="fill:#231f20" />
<path
   id="path21"
   d="M 152.2578,134.27795 L 153.7569,134.0699 C 153.93075,134.9211 154.2243,135.5348 154.6385,135.911 C 155.05365,136.28625 155.5619,136.47435 156.16515,136.47435 C 156.8805,136.47435 157.48185,136.22925 157.9692,135.74095 C 158.45655,135.25075 158.69975,134.64465 158.69975,133.92075 C 158.69975,133.23105 158.47365,132.66295 158.01955,132.21455 C 157.5664,131.76615 156.9907,131.5429 156.2915,131.5429 C 156.00555,131.5429 155.65025,131.59895 155.2256,131.7101 L 155.39375,130.38865 C 155.49445,130.40005 155.5752,130.40575 155.63695,130.40575 C 156.27725,130.40575 156.8539,130.2395 157.3669,129.90605 C 157.8799,129.5726 158.1364,129.05865 158.1364,128.3642 C 158.1364,127.81415 157.94925,127.35815 157.57495,126.9981 C 157.20065,126.6371 156.71805,126.4566 156.1262,126.4566 C 155.54005,126.4566 155.0508,126.6409 154.66035,127.0095 C 154.2699,127.3781 154.01815,127.931 153.907,128.6682 L 152.4079,128.40125 C 152.59125,127.39235 153.0102,126.6105 153.6619,126.05665 C 154.3136,125.50185 155.1249,125.22445 156.09485,125.22445 C 156.76365,125.22445 157.3802,125.36695 157.9426,125.65385 C 158.505,125.9398 158.93535,126.33025 159.2346,126.82425 C 159.53195,127.3192 159.68205,127.8436 159.68205,128.39935 C 159.68205,128.92755 159.5405,129.40825 159.25645,129.84145 C 158.9724,130.27465 158.5525,130.61855 157.9958,130.87505 C 158.7197,131.04225 159.2821,131.389 159.68585,131.91435 C 160.08865,132.4416 160.291,133.099 160.291,133.8894 C 160.291,134.9591 159.90055,135.86445 159.11965,136.60735 C 158.33875,137.35025 157.3517,137.72265 156.1585,137.72265 C 155.08215,137.72265 154.1882,137.4025 153.4776,136.7641 C 152.76415,136.12285 152.3585,135.2954 152.2578,134.27795 z"
   style="fill:#231f20" />
<path
   id="path25"
   d="M 413.87545,68.7194 C 413.87545,66.00905 414.60315,63.88865 416.0595,62.3563 C 417.51395,60.823 419.394,60.05635 421.6949,60.05635 C 423.2035,60.05635 424.562,60.4164 425.77135,61.1365 C 426.98165,61.85755 427.90505,62.86075 428.53965,64.14895 C 429.17425,65.43715 429.49155,66.89825 429.49155,68.53035 C 429.49155,70.1862 429.15715,71.66725 428.4893,72.9735 C 427.82145,74.27975 426.8743,75.26965 425.6488,75.9413 C 424.42425,76.61295 423.10185,76.94925 421.6835,76.94925 C 420.14735,76.94925 418.7727,76.5778 417.5624,75.83585 C 416.3521,75.0939 415.4363,74.0793 414.8112,72.79585 C 414.1861,71.5124 413.87545,70.15295 413.87545,68.7194 z M 416.1013,68.74695 C 416.1013,70.71345 416.63045,72.2629 417.6897,73.3953 C 418.74705,74.52675 420.0761,75.09295 421.67115,75.09295 C 423.2985,75.09295 424.6361,74.52105 425.6887,73.3782 C 426.73845,72.23535 427.2638,70.6137 427.2638,68.51325 C 427.2638,67.18515 427.0396,66.0252 426.59025,65.03435 C 426.1409,64.0435 425.4835,63.27495 424.61805,62.72965 C 423.75355,62.18435 422.78265,61.9117 421.70535,61.9117 C 420.1768,61.9117 418.85915,62.43705 417.75715,63.4868 C 416.6523,64.5375 416.1013,66.2912 416.1013,68.74695 z"
   style="fill:#231f20" /><path
   id="path27"
   d="M 432.352,76.66615 L 432.352,60.3385 L 434.51895,60.3385 L 434.51895,67.04835 L 442.9654,67.04835 L 442.9654,60.3385 L 445.13235,60.3385 L 445.13235,76.6671 L 442.9654,76.6671 L 442.9654,68.9778 L 434.51895,68.9778 L 434.51895,76.6671 L 432.352,76.6671 L 432.352,76.66615 z"
   style="fill:#231f20" />
<path
   id="path31"
   d="M 328.9331,14.4155 L 331.10005,14.9608 C 330.6469,16.7373 329.8337,18.092 328.6595,19.02395 C 327.48435,19.9559 326.04795,20.4233 324.3503,20.4233 C 322.5928,20.4233 321.164,20.06515 320.062,19.3479 C 318.96095,18.6316 318.12305,17.5923 317.5483,16.2338 C 316.97355,14.8753 316.68665,13.4142 316.68665,11.85525 C 316.68665,10.15475 317.01155,8.6699 317.6585,7.40355 C 318.3083,6.1372 319.2298,5.1739 320.42775,4.51745 C 321.62475,3.861 322.94145,3.53135 324.37975,3.53135 C 326.0109,3.53135 327.38175,3.94745 328.49325,4.77965 C 329.6057,5.6128 330.379,6.78225 330.81695,8.2918 L 328.69465,8.79245 C 328.31655,7.60495 327.7684,6.74045 327.0502,6.19895 C 326.332,5.65745 325.42665,5.3867 324.33795,5.3867 C 323.08585,5.3867 322.03895,5.6869 321.19725,6.28825 C 320.3565,6.8896 319.76465,7.69615 319.42455,8.7098 C 319.08445,9.72345 318.91345,10.7675 318.91345,11.84385 C 318.91345,13.2318 319.1158,14.44305 319.5186,15.47855 C 319.9233,16.51405 320.5503,17.28735 321.4015,17.7994 C 322.2527,18.31145 323.17515,18.56795 324.1679,18.56795 C 325.3744,18.56795 326.3966,18.2193 327.23355,17.52105 C 328.0705,16.8228 328.6367,15.78825 328.9331,14.4155 z"
   style="fill:#231f20" /><path
   id="path33"
   d="M 333.8503,20.14115 L 333.8503,3.8135 L 336.01725,3.8135 L 336.01725,10.52335 L 344.4637,10.52335 L 344.4637,3.8135 L 346.63065,3.8135 L 346.63065,20.1421 L 344.4637,20.1421 L 344.4637,12.4528 L 336.01725,12.4528 L 336.01725,20.1421 L 333.8503,20.1421 L 333.8503,20.14115 z"
   style="fill:#231f20" />
<path
   id="path37"
   d="M 348.14875,21.18045 L 349.64785,20.9724 C 349.82075,21.8236 350.11525,22.4373 350.52945,22.8135 C 350.94365,23.18875 351.45285,23.37685 352.0561,23.37685 C 352.7705,23.37685 353.3728,23.13175 353.8592,22.64345 C 354.34655,22.15325 354.5907,21.54715 354.5907,20.82325 C 354.5907,20.13355 354.3646,19.56545 353.90955,19.11705 C 353.4564,18.66865 352.8807,18.4454 352.18245,18.4454 C 351.8965,18.4454 351.54025,18.50145 351.1156,18.6126 L 351.2847,17.29115 C 351.38445,17.30255 351.46615,17.30825 351.5279,17.30825 C 352.1682,17.30825 352.74485,17.142 353.2569,16.80855 C 353.7699,16.4751 354.02735,15.96115 354.02735,15.2667 C 354.02735,14.71665 353.8402,14.26065 353.46495,13.9006 C 353.09065,13.5396 352.60805,13.3591 352.0162,13.3591 C 351.43005,13.3591 350.94175,13.5434 350.55035,13.912 C 350.15895,14.2806 349.90815,14.8335 349.797,15.5707 L 348.2979,15.30375 C 348.48125,14.29485 348.89925,13.513 349.5519,12.95915 C 350.2036,12.40435 351.01395,12.12695 351.98485,12.12695 C 352.6527,12.12695 353.26925,12.26945 353.83165,12.55635 C 354.395,12.8423 354.82535,13.23275 355.12365,13.72675 C 355.421,14.2217 355.5711,14.7461 355.5711,15.30185 C 355.5711,15.83005 355.4286,16.31075 355.14455,16.74395 C 354.8605,17.17715 354.44155,17.52105 353.88485,17.77755 C 354.60875,17.94475 355.17115,18.2915 355.5749,18.81685 C 355.9777,19.3441 356.18005,20.0015 356.18005,20.7919 C 356.18005,21.8616 355.78865,22.76695 355.0087,23.50985 C 354.22875,24.25275 353.2417,24.62515 352.0485,24.62515 C 350.9712,24.62515 350.0782,24.305 349.3676,23.6666 C 348.6532,23.0263 348.2485,22.1979 348.14875,21.18045 z"
   style="fill:#231f20" />
<path
   id="path41"
   d="M 198.3556,14.4155 L 200.52255,14.9608 C 200.07035,16.7373 199.2562,18.092 198.082,19.02395 C 196.90685,19.9559 195.4695,20.4233 193.77185,20.4233 C 192.01435,20.4233 190.58555,20.06515 189.4845,19.3479 C 188.38345,18.6316 187.54555,17.5923 186.9708,16.2338 C 186.39605,14.87435 186.10915,13.4142 186.10915,11.85525 C 186.10915,10.15475 186.4331,8.6699 187.08195,7.40355 C 187.7308,6.1372 188.65325,5.1739 189.8512,4.51745 C 191.0482,3.861 192.3649,3.53135 193.8032,3.53135 C 195.43435,3.53135 196.8052,3.94745 197.9167,4.77965 C 199.02915,5.6128 199.8034,6.78225 200.2404,8.2918 L 198.1181,8.79245 C 197.74,7.60495 197.19185,6.74045 196.47365,6.19895 C 195.7545,5.65745 194.8501,5.3867 193.7614,5.3867 C 192.5093,5.3867 191.4624,5.6869 190.6207,6.28825 C 189.77995,6.8896 189.18905,7.69615 188.848,8.7098 C 188.50695,9.72345 188.3369,10.7675 188.3369,11.84385 C 188.3369,13.2318 188.5383,14.44305 188.94205,15.47855 C 189.3458,16.51405 189.9728,17.28735 190.82495,17.7994 C 191.6771,18.31145 192.5986,18.56795 193.59135,18.56795 C 194.7988,18.56795 195.82005,18.2193 196.657,17.52105 C 197.49395,16.8228 198.0592,15.78825 198.3556,14.4155 z"
   style="fill:#231f20" /><path
   id="path43"
   d="M 203.2728,20.14115 L 203.2728,3.8135 L 205.43975,3.8135 L 205.43975,10.52335 L 213.8862,10.52335 L 213.8862,3.8135 L 216.05315,3.8135 L 216.05315,20.1421 L 213.8862,20.1421 L 213.8862,12.4528 L 205.43975,12.4528 L 205.43975,20.1421 L 203.2728,20.1421 L 203.2728,20.14115 z"
   style="fill:#231f20" />
<path
   id="path47"
   d="M 217.5703,21.18045 L 219.0694,20.9724 C 219.24325,21.8236 219.5368,22.4373 219.951,22.8135 C 220.36615,23.18875 220.8744,23.37685 221.47765,23.37685 C 222.193,23.37685 222.79435,23.13175 223.2817,22.64345 C 223.76905,22.15325 224.01225,21.54715 224.01225,20.82325 C 224.01225,20.13355 223.78615,19.56545 223.33205,19.11705 C 222.8789,18.66865 222.3032,18.4454 221.604,18.4454 C 221.31805,18.4454 220.96275,18.50145 220.5381,18.6126 L 220.70625,17.29115 C 220.80695,17.30255 220.8877,17.30825 220.94945,17.30825 C 221.58975,17.30825 222.1664,17.142 222.6794,16.80855 C 223.1924,16.4751 223.4489,15.96115 223.4489,15.2667 C 223.4489,14.71665 223.26175,14.26065 222.88745,13.9006 C 222.51315,13.5396 222.03055,13.3591 221.4387,13.3591 C 220.85255,13.3591 220.3633,13.5434 219.97285,13.912 C 219.5824,14.2806 219.33065,14.8335 219.2195,15.5707 L 217.7204,15.30375 C 217.90375,14.29485 218.3227,13.513 218.9744,12.95915 C 219.6261,12.40435 220.4374,12.12695 221.40735,12.12695 C 222.07615,12.12695 222.6927,12.26945 223.2551,12.55635 C 223.8175,12.8423 224.24785,13.23275 224.5471,13.72675 C 224.84445,14.2217 224.99455,14.7461 224.99455,15.30185 C 224.99455,15.83005 224.853,16.31075 224.56895,16.74395 C 224.2849,17.17715 223.865,17.52105 223.3083,17.77755 C 224.0322,17.94475 224.5946,18.2915 224.99835,18.81685 C 225.40115,19.3441 225.6035,20.0015 225.6035,20.7919 C 225.6035,21.8616 225.21305,22.76695 224.43215,23.50985 C 223.65125,24.25275 222.6642,24.62515 221.471,24.62515 C 220.39465,24.62515 219.5007,24.305 218.7901,23.6666 C 218.07665,23.0263 217.671,22.1979 217.5703,21.18045 z"
   style="fill:#231f20" />
<path
   style="fill:#231f20"
   d="M 63.65225,48.54615 L 62.5588,48.8321 L 62.5588,47.21615 L 75.1463,25.4146 L 76.5713,26.22115 L 63.65225,48.54615 z"
   id="polygon49" />
<path
   style="fill:#231f20"
   d="M 95.19225,66.78615 L 95.19225,67.6896 L 94.3838,68.1646 L 62.5588,49.7821 L 62.5588,48.8321 L 63.65225,48.54615 L 95.19225,66.78615 z"
   id="polygon51" />
<path
   style="fill:#231f20"
   d="M 95.99975,104.92865 L 95.19225,105.40365 L 94.3838,104.92865 L 94.3838,68.1646 L 95.19225,67.6896 L 95.99975,68.1646 L 95.99975,104.92865 z"
   id="polygon53" />
<path
   style="fill:#231f20"
   d="M 88.73225,70.966151 L 90.347251,70.966151 L 90.347251,102.12615 L 88.73225,102.12615 L 88.73225,70.966151 z"
   id="rect55" />
<path
   style="fill:#231f20"
   d="M 62.5588,125.16365 L 62.5588,123.3121 L 94.3838,104.92865 L 95.19225,105.40365 L 95.19225,106.35365 L 62.5588,125.16365 z"
   id="polygon57" />
<path
   style="fill:#231f20"
   d="M 29.11975,105.87865 L 30.7338,104.92865 L 62.5588,123.3121 L 62.5588,125.16365 L 29.11975,105.87865 z"
   id="polygon59" />
<path
   style="fill:#231f20"
   d="M 29.11975,67.2146 L 30.7338,68.1646 L 30.7338,104.92865 L 29.11975,105.87865 L 29.11975,67.2146 z"
   id="polygon61" />
<path
   style="fill:#231f20"
   d="M 30.7338,68.1646 L 29.11975,67.2146 L 61.46725,48.54615 L 62.5588,48.8321 L 62.5588,49.7821 L 30.7338,68.1646 z"
   id="polygon63" />
<path
   style="fill:#231f20"
   d="M 120.12975,118.84615 L 119.3213,120.27115 L 95.19225,106.35365 L 95.19225,105.40365 L 95.99975,104.92865 L 120.12975,118.84615 z"
   id="polygon65" />
<path
   style="fill:#231f20"
   d="M 127.8713,47.92865 L 127.8713,49.7821 L 95.99975,68.1646 L 95.19225,67.6896 L 95.19225,66.78615 L 127.8713,47.92865 z"
   id="polygon67" />
<path
   style="fill:#231f20"
   d="M 160.50475,66.78615 L 160.50475,68.6396 L 127.8713,49.7821 L 127.8713,47.92865 L 160.50475,66.78615 z"
   id="polygon69" />
<path
   style="fill:#231f20"
   d="M 160.8838,60.4696 L 160.07725,61.84615 L 130.29475,44.6521 L 131.10225,43.2271 L 160.8838,60.4696 z"
   id="polygon71" />
<path
   style="fill:#231f20"
   d="M 192.32975,48.40365 L 193.13725,48.8321 L 193.13725,49.7821 L 160.50475,68.6396 L 160.50475,66.78615 L 192.32975,48.40365 z"
   id="polygon73" />
<path
   style="fill:#231f20"
   d="M 225.81725,66.78615 L 225.81725,68.6396 L 193.13725,49.7821 L 193.13725,48.8321 L 193.94475,48.40365 L 225.81725,66.78615 z"
   id="polygon75" />
<path
   style="fill:#231f20"
   d="M 226.1963,60.4696 L 225.38975,61.84615 L 198.4088,46.26615 L 199.21725,44.8896 L 226.1963,60.4696 z"
   id="polygon77" />
<path
   style="fill:#231f20"
   d="M 258.44975,47.92865 L 258.44975,49.7821 L 225.81725,68.6396 L 225.81725,66.78615 L 258.44975,47.92865 z"
   id="polygon79" />
<path
   style="fill:#231f20"
   d="M 291.08225,66.78615 L 291.08225,68.6396 L 258.44975,49.7821 L 258.44975,47.92865 L 291.08225,66.78615 z"
   id="polygon81" />
<path
   style="fill:#231f20"
   d="M 291.5088,60.4696 L 290.7013,61.84615 L 260.8713,44.6521 L 261.67975,43.2271 L 291.5088,60.4696 z"
   id="polygon83" />
<path
   style="fill:#231f20"
   d="M 322.95475,48.40365 L 323.76225,48.8321 L 323.76225,49.7821 L 291.08225,68.6396 L 291.08225,66.78615 L 322.95475,48.40365 z"
   id="polygon85" />
<path
   style="fill:#231f20"
   d="M 356.39475,66.78615 L 356.39475,68.6396 L 323.76225,49.7821 L 323.76225,48.8321 L 324.56975,48.40365 L 356.39475,66.78615 z"
   id="polygon87" />
<path
   style="fill:#231f20"
   d="M 356.8213,60.4696 L 356.0138,61.84615 L 328.98725,46.26615 L 329.79475,44.8896 L 356.8213,60.4696 z"
   id="polygon89" />
<path
   style="fill:#231f20"
   d="M 389.07475,47.92865 L 389.07475,49.7821 L 356.39475,68.6396 L 356.39475,66.78615 L 389.07475,47.92865 z"
   id="polygon91" />
<path
   style="fill:#231f20"
   d="M 413.4888,62.03615 L 412.68225,63.4146 L 389.07475,49.7821 L 389.07475,47.92865 L 413.4888,62.03615 z"
   id="polygon93" />
<path
   style="fill:#231f20"
   d="M 322.95475,22.51615 L 324.56975,22.51615 L 324.56975,48.40365 L 323.76225,48.8321 L 322.95475,48.40365 L 322.95475,22.51615 z"
   id="polygon95" />
<path
   style="fill:#231f20"
   d="M 192.32975,22.51615 L 193.94475,22.51615 L 193.94475,48.40365 L 193.13725,48.8321 L 192.32975,48.40365 L 192.32975,22.51615 z"
   id="polygon97" />
<path
   id="path101"
   d="M 11.41365,25.17615 L 11.41365,8.8485 L 13.5806,8.8485 L 13.5806,15.55835 L 22.02705,15.55835 L 22.02705,8.8485 L 24.194,8.8485 L 24.194,25.1771 L 22.02705,25.1771 L 22.02705,17.48685 L 13.5806,17.48685 L 13.5806,25.17615 L 11.41365,25.17615 z"
   style="fill:#231f20" />
<path
   id="path105"
   d="M 26.10255,26.21545 L 27.60165,26.0074 C 27.7755,26.8586 28.06905,27.4723 28.48325,27.8485 C 28.8984,28.22375 29.40665,28.41185 30.0099,28.41185 C 30.72525,28.41185 31.3266,28.16675 31.81395,27.67845 C 32.3013,27.18825 32.5445,26.58215 32.5445,25.85825 C 32.5445,25.16855 32.3184,24.60045 31.8643,24.15205 C 31.41115,23.70365 30.83545,23.4804 30.13625,23.4804 C 29.8503,23.4804 29.495,23.53645 29.07035,23.6476 L 29.2385,22.32615 C 29.3392,22.33755 29.41995,22.34325 29.4817,22.34325 C 30.122,22.34325 30.69865,22.177 31.21165,21.84355 C 31.72465,21.5101 31.98115,20.99615 31.98115,20.3017 C 31.98115,19.75165 31.794,19.29565 31.4197,18.9356 C 31.0454,18.5746 30.5628,18.3941 29.97095,18.3941 C 29.3848,18.3941 28.89555,18.5784 28.5051,18.947 C 28.11465,19.3156 27.8629,19.8685 27.75175,20.6057 L 26.25265,20.33875 C 26.436,19.32985 26.85495,18.548 27.50665,17.99415 C 28.15835,17.43935 28.96965,17.16195 29.9396,17.16195 C 30.6084,17.16195 31.22495,17.30445 31.78735,17.59135 C 32.34975,17.8773 32.7801,18.26775 33.07935,18.76175 C 33.3767,19.2567 33.5268,19.7811 33.5268,20.33685 C 33.5268,20.86505 33.38525,21.34575 33.1012,21.77895 C 32.81715,22.21215 32.39725,22.55605 31.84055,22.81255 C 32.56445,22.97975 33.12685,23.3265 33.5306,23.85185 C 33.9334,24.3791 34.13575,25.0365 34.13575,25.8269 C 34.13575,26.8966 33.7453,27.80195 32.9644,28.54485 C 32.1835,29.28775 31.19645,29.66015 30.00325,29.66015 C 28.9269,29.66015 28.03295,29.34 27.32235,28.7016 C 26.60795,28.06035 26.2023,27.2329 26.10255,26.21545 z"
   style="fill:#231f20" />
<path
   id="path109"
   d="M 48.5007,19.4505 L 50.66765,19.9958 C 50.21545,21.7723 49.4013,23.127 48.2271,24.05895 C 47.05195,24.9909 45.6146,25.4583 43.91695,25.4583 C 42.15945,25.4583 40.73065,25.10015 39.6296,24.3829 C 38.52855,23.6666 37.69065,22.6273 37.1159,21.2688 C 36.54115,19.90935 36.25425,18.4492 36.25425,16.89025 C 36.25425,15.18975 36.5782,13.7049 37.22705,12.43855 C 37.8759,11.1722 38.79835,10.2089 39.9963,9.55245 C 41.1933,8.896 42.51,8.56635 43.9483,8.56635 C 45.57945,8.56635 46.9503,8.98245 48.0618,9.81465 C 49.17425,10.6478 49.9485,11.81725 50.3855,13.3268 L 48.2632,13.82745 C 47.8851,12.63995 47.33695,11.77545 46.61875,11.23395 C 45.8996,10.69245 44.9952,10.4217 43.9065,10.4217 C 42.6544,10.4217 41.6075,10.7219 40.7658,11.32325 C 39.92505,11.9246 39.33415,12.73115 38.9931,13.7448 C 38.65205,14.75845 38.482,15.8025 38.482,16.87885 C 38.482,18.2668 38.6834,19.47805 39.08715,20.51355 C 39.4909,21.54905 40.1179,22.32235 40.97005,22.8344 C 41.8222,23.34645 42.7437,23.60295 43.73645,23.60295 C 44.9439,23.60295 45.96515,23.2543 46.8021,22.55605 C 47.63905,21.8578 48.2043,20.82325 48.5007,19.4505 z"
   style="fill:#231f20" />
<path
   style="fill:#231f20"
   d="M 48.73725,26.5071 L 50.11475,25.69865 L 62.5588,47.21615 L 62.5588,48.8321 L 61.46725,48.54615 L 48.73725,26.5071 z"
   id="polygon111" />
</svg>